/* XPM */
static char *d806f77ead4f46ccda3999dda5d6811e1c7jXEFjySlvtQ3S[] = {
/* columns rows colors chars-per-pixel */
"32 32 129 2 ",
"   c None",
".  c #DF3B36",
"X  c #E03632",
"o  c #E03A36",
"O  c #E03E39",
"+  c #E0423D",
"@  c #E14542",
"#  c #E14B44",
"$  c #E14B4D",
"%  c #E2544C",
"&  c #E2584F",
"*  c #E04355",
"=  c #E14851",
"-  c #E14E5F",
";  c #E25354",
":  c #E25C52",
">  c #E35E5A",
",  c #E4655C",
"<  c #E25463",
"1  c #E25A67",
"2  c #E35D6C",
"3  c #E45F71",
"4  c #E46561",
"5  c #E3626D",
"6  c #E46D6A",
"7  c #E5726E",
"8  c #E36472",
"9  c #E36975",
"0  c #E46779",
"q  c #E46C7A",
"w  c #E67976",
"e  c #E5717F",
"r  c #E67D7A",
"t  c #E57482",
"y  c #E67D8A",
"u  c #E78585",
"i  c #E6828E",
"p  c #E88F8D",
"a  c #EA918F",
"s  c #E78792",
"d  c #E78D96",
"f  c #E78F99",
"g  c #E88F99",
"h  c #E99593",
"j  c #E8949D",
"k  c #EA9E9C",
"l  c #EAA19F",
"z  c #E997A1",
"x  c #E99DA7",
"c  c #EAA3A3",
"v  c #EAA9A7",
"b  c #E9A4AD",
"n  c #EAABA9",
"m  c #EBB0AF",
"M  c #EBADB5",
"N  c #EBB4B3",
"B  c #ECB8B7",
"V  c #EBB4BB",
"C  c #ECBBBC",
"Z  c #ECBCC3",
"A  c #EDC3C4",
"S  c #EDC2C8",
"D  c #EECFCD",
"F  c #EECFCF",
"G  c #EDCACC",
"H  c #EECBD0",
"J  c #EECDD1",
"K  c #EECFD2",
"L  c #EED0D0",
"P  c #EED3D6",
"I  c #EFD7D6",
"U  c #EED4D6",
"Y  c #EFD8D6",
"T  c #EED4D8",
"R  c #EED6DA",
"E  c #EFD8D8",
"W  c #EFDADA",
"Q  c #EFDBDB",
"!  c #EED8DC",
"~  c #EFDADC",
"^  c #EFDADD",
"/  c #EFDADE",
"(  c #EFDFE0",
")  c #EFDFE2",
"_  c #EFDDE0",
"`  c #EFE1E1",
"'  c #EFE0E0",
"]  c #F0E4E5",
"[  c #F0E5E5",
"{  c #F0E5E7",
"}  c #F0E6E6",
"|  c #F0E7E9",
" . c #F0E9EA",
".. c #F0EAEB",
"X. c #F0EBEC",
"o. c #F0EBED",
"O. c #F1ECED",
"+. c #F1EDED",
"@. c #F0EDEE",
"#. c #F0ECED",
"$. c gray94",
"%. c #F1F0F1",
"&. c #F1F1F1",
"*. c #F1F0F2",
"=. c #F1F1F2",
"-. c #F1F2F2",
";. c #F1F2F3",
":. c #F1F3F3",
">. c #F1F2F4",
",. c #F1F3F4",
"<. c #F2F5F5",
"1. c #F2F5F6",
"2. c #F1F6F6",
"3. c #F1F6F7",
"4. c #F2F7F7",
"5. c #F1F3F4",
"6. c #F2F8F8",
"7. c #F2F8F9",
"8. c #F2F9F9",
"9. c #F2F9FA",
"0. c #F2FAFA",
"q. c #F2FAFB",
"w. c #F2FBFB",
"e. c #F2FDFD",
"r. c #F2FEFE",
"t. c #F2FFFE",
"y. c #F2FFFF",
"u. c #F3FFFF",
"i. c #F2FCFC",
/* pixels */
"                                                                ",
"                      2 q <         # + +                       ",
"                    s ..7.R 8     # X O o @                     ",
"              < < 8 >.7.>.u.H     O O O O o   % +               ",
"            y _ A g u.=.=.1.| =   O O p 4 o   % o o             ",
"          q *.u.J d i.=.=.=. .@   4 4 F 6 o   $ o o %           ",
"          z u.>...e | Q C :.M @ l 7.=. .> + % O O O #           ",
"        * V w.=.w.V q c % u O O a w.=.=.R 6 6 + O X   ,         ",
"      8 ! 1.=.=.=.w.V q ; O O +   r n @.=.=.N # o #   o +       ",
"    9 H u.=.=.=.=.] [ G @ O k 2   +   , E =.  ,     @ o O       ",
"    q =.>.=.=.=.=.v % > O r >.2   #   o 6 Q 7 : % + X O X :     ",
"    q =.>.=.=.*.w.[ 6 O @ P >.3   #   o + % O o X O :   &       ",
"    < A u.>.>.9.P 8 @ O # ^ 9.3   ,   o O O O O #     # :       ",
"    q q Z @.>...8   O O O 0 *.8     # o O O O X   : X o X #     ",
"  9 ^ ^ t i w.N     O O O   Z 0     O O O O o #   O O O O X     ",
"  8 $.w.w.@.i.z   O O O O   b 0     + O O O O +   O O o O o #   ",
"  8 | 1.=.5.u.s + O O O O   0 5     & o + , O %   o %   + X     ",
"    b u.w.u.E 1     O O O   -     :   o 4  .6   % o + &   :     ",
"    < x P Z 8       O O O ; M 2   o >   l =...C O O o X #       ",
"    2   -           O O O + D 3   O . , } >.A 4 O O O O O       ",
"    <                 + O O @ -   > w L =.=.w O O O O O o &     ",
"    1       - f M 5 O O O O O @ k =.=.=.=.=.v : O O O O o       ",
"          9 V u.u.I u = O O o # k 7.=.=.=.N v 7 O O O X #       ",
"      1 * t u.=.=.w.w. .c O o # c 1.=.=.`   + o O O + &         ",
"          j u.=.@.M $.1.h > u @ h =.P  .r ,   o O O +           ",
"          i i.7.P y 4.=.B A >.@   , + n l O   # O X %           ",
"          8 A u.L j u.=.$.=.@.$   O O # @ X   % X o             ",
"            < b b e w.=.$.w.Q 5   O O O O O   : #               ",
"                  - V u.u.1.i     # X O o +                     ",
"                    < y x q         + O +                       ",
"                                                                ",
"                                                                "
};
