/* XPM */
static char *b8b3907ae0e0444f8a96be0dc4133b7dVHPCImX2M3J7O10j[] = {
/* columns rows colors chars-per-pixel */
"64 64 104 2 ",
"   c None",
".  c #DF2E2D",
"X  c #DF312E",
"o  c #DE253D",
"O  c #DF3632",
"+  c #DF3935",
"@  c #DF3D39",
"#  c #E0302F",
"$  c #E13633",
"%  c #E03A36",
"&  c #E03E39",
"*  c #E0423C",
"=  c #DE2C44",
"-  c #DF2E49",
";  c #DF3342",
":  c #DF3947",
">  c #DF344B",
",  c #DF394E",
"<  c #DF3C51",
"1  c #E03D43",
"2  c #E03A4F",
"3  c #E03D52",
"4  c #E14642",
"5  c #E14A43",
"6  c #E14D4A",
"7  c #E15146",
"8  c #E2534B",
"9  c #E2594E",
"0  c #E04255",
"q  c #E14C53",
"w  c #E14559",
"e  c #E14B5C",
"r  c #E25551",
"t  c #E25C53",
"y  c #E2525D",
"u  c #E35D5A",
"i  c #E36356",
"p  c #E3635B",
"a  c #E3685E",
"s  c #E14E61",
"d  c #E15363",
"f  c #E25965",
"g  c #E25768",
"h  c #E35C6B",
"j  c #E46561",
"k  c #E36B65",
"l  c #E3626D",
"z  c #E56D6A",
"x  c #E5726E",
"c  c #E36472",
"v  c #E36874",
"b  c #E46C7A",
"n  c #E57572",
"m  c #E67975",
"M  c #E4727D",
"N  c #E67D7A",
"B  c #E67785",
"V  c #E57A86",
"C  c #E67D8A",
"Z  c #E78481",
"A  c #E78987",
"S  c #E6838E",
"D  c #E88D8B",
"F  c #E68790",
"G  c #E78E97",
"H  c #E78E98",
"J  c #E89593",
"K  c #E99A97",
"L  c #E7949C",
"P  c #E8939C",
"I  c #E99D9B",
"U  c #E9A09E",
"Y  c #E897A0",
"T  c #E89CA4",
"R  c #EAA5A5",
"E  c #EAA9A7",
"W  c #E9A4AB",
"Q  c #EAACAC",
"!  c #EBB0AF",
"~  c #EAACB1",
"^  c #EBB5B4",
"/  c #EBB9B6",
"(  c #EBB5BA",
")  c #E6BDBC",
"_  c #EBBBBD",
"`  c #ECC0BF",
"'  c #ECBDC1",
"]  c #EDC4C5",
"[  c #ECC6C9",
"{  c #EDCCCC",
"}  c #EED4D5",
"|  c #EED6D8",
" . c #EFDBDC",
".. c #EFDFE0",
"X. c #EFE3E4",
"o. c #F0E5E5",
"O. c #F0E7E8",
"+. c #F1EDED",
"@. c #F1F0EF",
"#. c #F1EFF0",
"$. c #F1F1F2",
"%. c #F1F8F7",
"&. c #F2F7F8",
"*. c #F2FCFC",
/* pixels */
"                                                                                                                                ",
"                                                                                                                                ",
"                                            h 0 > 2 d                     9 * * 8                                               ",
"                                          > 0 M L S d > d               % % % * % % 8                                           ",
"                                        = B ..*.*.*.$.W , g           % & & & & & & % 8                                         ",
"                                      3 C *.*.$.$.$.$.*.( >         * % & & & & % * & %                                         ",
"                              e c   y s +.&.$.$.$.$.$.$.*.F <       O & & & & & % & % % t   7 % * 8                             ",
"                          w > e d e - T *.$.$.$.$.$.$.$.*.| 3     9 % & & & & & * % * % 5   t $ % % %                           ",
"                        > g ' +.*.] 2 { *.$.$.#.$.$.$.#.$.$.h     % * % & & & * & & & & $   j % & & % %                         ",
"                      , b +.*.$.*._ 3  .&.$.$.$.$.$.$.$.$.&.u 1   % % * & & N ] m & & % *   a % & & & O t                       ",
"                    v w O.*.$.$.*.' 2  .&.$.$.$.#.$.$.$.$.$.4 $   * * % & & R $.E & & % 6   9 % & & & & *                       ",
"                    , W *.$.$.$.$.} 2 ' *.#.#.$.$.$.$.$.$.*.q &   m N Z m x { $.x & & %     4 & & & & & &                       ",
"                    0  .*.$.$.$.$.#.e S *.$.$.$.o.#.$.$.#.+.6 &   | @.$.$.@.$.| 6 & & %     % & & & & & &                       ",
"                    s +.$.$.$.$.$.*.P 2  .*.$.~ r { $.$._ r % .   ^ $.$.$.$.$.#.I & & & & % & & & & & & &                       ",
"                  0 s $.$.$.$.$.$.&.o.0 g O.&.j & z #.I & & & $   ` $.$.$.$.#.$.$.J & & 6 & & & & & & & *                       ",
"              d > s Y $.$.$.$.$.$.$.*.] 2 e _ ^ & & u * & & & .   { $.$.$.$.$.$.$.$.N Z | p & & & & & % 9   7 $ 8               ",
"            e 3 W $.*.$.$.$.$.#.$.$.$.*.{ g = 0 6 & & & & & % .   K / Q ] +.$.$.$.$.+.+.$./ & % & & % &     & & $ t             ",
"            > _ *.&.$.$.$.#.$.$.$.$.$.$.*.#.( V y & & & & & q 1   & & % 4   #.$.$.$.$.$. .N % @ % % &     t $ & & X             ",
"          < G *.$.$.$.$.$.$.$.$.$.$.$.$.$.$.*.| 8 & & & & E B -   * & %     5 D $.$.$.$.  5 4 * * 8     k + & & & % 8           ",
"          3  .*.#.$.$.$.$.$.#.$.#.$.$.{ I +.$.x & & & & I *.B 2   % & *     % % K $.$.+.              9 % & & & & @ *           ",
"        g c %.$.$.$.$.$.$.$.$.#.#.$.$.m @ Z E & & & & Z #.*.B 2   * % 7   @ % * & ^ $.$.I t       8 * % * & & & & & *           ",
"        g V *.$.$.#.$.#.#.$.$.$.$.#.o.r & * * & & & 6 | #.*.B -   % % 8   X * % & u o.| x % & & % % % & & % % % % % *           ",
"        g V *.$.$.$.#.$.$.$.$.$.$.$.#. .z @ & & & & T #.$.*.B -   % % 8   X & & & & u 4 & & & & & & & % % * 8 8 4 % 8           ",
"          h $.$.$.$.$.$.$.$.$.$.$.$.*.O.( t & & & 6 o.$.#.*.B 2   % % 6   . * & & * % * & & & & & & % 4                         ",
"          3 } *.$.$.$.$.$.$.$.$.&.*.W w > & & & & j *.$.#.*.B -   7 # 4   8 % & & & & & & & & & & % 8       i 9                 ",
"          = V *.$.$.$.$.#.$.$.$.&.C = d   & & & * ; P *.$.*.B =     t     8 % & & & & & & & & & O t     5 O % & % *             ",
"        0 e 2 W *.*.$.$.$.$.$.*.L >       & & & & q = ~ *.*.B =         t % & & & & & & & & & % *     % % * & & & % $           ",
"      g e o.S o C  .$.*.$.#.*. .,       & & & & &   f w +.*.B     5 7 * % % & & & & * & & & & % i   8 % & & & & & & % *         ",
"      > ~ *.$.L > > d S @.$.*.H <       & & & & &     > W *.B -       9 % & & & & & & & & & & &     % & & & & & & & & O i       ",
"      0 o.*.$.*.| P c S $.$.$.h f       & & & & &     h b *.B -         * * & & & & & & & & % 5   p $ * & & & & & & & % 5       ",
"    g c $.$.$.$.%.*.%.*.$.$.o.e         & & & & &       g *.C >   % t   * % & & & & & & & & % 5   % @ & & & & & & & & & * 7     ",
"    q b *.$.$.$.$.$.$.$.$.*.o.w & & & & & & & & &       g *.C -   # p   * & & & & & & & & & * %   8 % & % $ % & & & & & * 7     ",
"    l h $.$.$.$.$.$.$.$.$.*.| 0 4 & & & & & & & &       w ( h e   % 8   9 % % & & & & & & & % 9   8 % % 4 p * * % % % % 5       ",
"      3 X.*.$.$.$.$.$.$.$.*.~ <   & & & & & & & &       w 2 w     % *     % & & & & x I 5 & $     * & % i       8 % % % i       ",
"      , T *.$.$.$.$.$.$.$.*.c e         & & & & & &               & $     * % & & z $.$.x % *     $ & & * 8         * %         ",
"      v 3 | *.$.$.$.$.$.*.W >           & & & & & &     3 3       % % 4     % % & J $.$.I &     5 % & & % % % *       t         ",
"        , d { *.*.*.*.*.Q > l           & & & & & & 5 2 S C 2     O & O x     * % Q $.$...[   t % & & & & & & & $               ",
"          3 < C ( [ ~ c > d             & & & & & & & d *.*.c w   % & & $ a       o.$.$.@.$.+.$ & & & & & & & & & %             ",
"          0 g 3 > 2 > w                 & & & & & & & 6 $.*.B -   % & & & % 5     $.$.$.+./ K * & & & & & & & & & % i           ",
"        c y                               & & & & & & & N #.B 2   * & & & & % m +.$.$.$.] * & & & & & & & & & & % % 4           ",
"        l d                               & & & & & & & & j c -   @ & & & * A o.$.$.$.$.[ * * & & & & & & & & & & & *           ",
"        c w                   h 0 d       & & & & & & & & & & $   k k z J [ +.$.$.$.$.$.R & % & & & & & & & & & & & *           ",
"        g d               0 2 s b l 3 1 * & & & & & & & & & & $   ) $.$.$.$.$.$.$.$.$.$.D * & & & & & & & & & & & % 4           ",
"          w             2 d _ +.%.$.{ 5 & & & & & & & & & & & 1   ] $.$.#.$.$.$.$.$.$.$.+._ p & & & & & & & & & & $ i           ",
"          0           0 h +.*.$.$.$.*.R 6 1 3 & & & & & & & & $   ^ $.$.$.$.#.$.$.#.$.[ o.$.x * & & * % & & & & % &             ",
"          l 3         3 | *.$.$.$.$.$.#.&.( h w & & & & & & & #   / $.$.$.$.$.$.$.$.{ * p K 4 & & & & & & * & % %               ",
"            e w     0 S *.$.$.$.$.$.$.#.#.*.&.O.' 5 & & & & & .   ` $.$.$.$.#.$.$.$.  4 % * & & * & & & * % % *                 ",
"              w 3 s 2 ' *.$.$.$.$.#.&.&.$.$.$.&.&.R & & & & & .   / $.$.$.$.$.$.o.K     4 % & & % & & & & *                     ",
"                  w <  .&.$.$.$.$.%...} $.$.$.#.+.j & 6 8 & & $   ( $.$.$.#.$.$.J O 4     % & & & & & & & *                     ",
"                    w | &.$.$.$.$.%.b b *.$.$.$.^ & & ^ o.E 6 #   / $.#...E { $.[ * % 9   p % & & & & & % *                     ",
"                    3 ] *.$.#.$.$.o., T *.$.$.$. .j p +.$.*.c $   j m x 6 & A $.$.k & %     & % & & & * %                       ",
"                    0 P *.$.$.$.*.[ > } *.$.$.$.$. .{ $.$.*.f %   & & & & & 6 ..] t % % t   7 % & & & % *                       ",
"                      w o.*.$.$.*.( 3 ..$.$.$.$.$.$.$.#.$.*.r %   * % & & & & p 5 & & & *   a % & & * $ t                       ",
"                      , B $.*.$.*.' 2  .*.$.$.$.$.$.$.$.$.*.f 1   % & & & & & & & & & & $   k % & & % *                         ",
"                        > b  .*.*.X., ' *.#.$.$.$.$.$.$.$.+.s     5 % & & & & & & & & % *   p $ % % 4                           ",
"                          2 < b G C > C *.$.$.$.$.$.$.$.*.' 2       % & & & & & & & & % 8     8 t                               ",
"                              w , w w 3 [ *.$.$.$.$.#.*.$.g g       % * & & & & & & & %                                         ",
"                                      e e | *.&.&.$.*.$.B >         a X & & & & & & % 5                                         ",
"                                        0 3 T  .+.X._ h ;             t O % % & & $ 4                                           ",
"                                          y > 0 w w > w                   * & * * 9                                             ",
"                                                M                                                                               ",
"                                                                                                                                ",
"                                                                                                                                ",
"                                                                                                                                "
};
