/* XPM */
static char *e232730420b24eb4ff907ea2e39e420c5sA0lThhIh3mAyXM[] = {
/* columns rows colors chars-per-pixel */
"16 16 137 2 ",
"   c None",
".  c #E03632",
"X  c #E03733",
"o  c #E03935",
"O  c #E03A35",
"+  c #E03937",
"@  c #E03A36",
"#  c #E03B36",
"$  c #E03B37",
"%  c #E03C37",
"&  c #E03B38",
"*  c #E03D38",
"=  c #E03E39",
"-  c #E03E3A",
";  c #E03F3A",
":  c #E03E3B",
">  c #E0413B",
",  c #E0433D",
"<  c #E0423E",
"1  c #E1443E",
"2  c #E1463F",
"3  c #E14540",
"4  c #E14741",
"5  c #E14942",
"6  c #E14943",
"7  c #E14A43",
"8  c #E14B43",
"9  c #E14B44",
"0  c #E14C45",
"q  c #E14D46",
"w  c #E14F47",
"e  c #E24C48",
"r  c #E24D49",
"t  c #E1524A",
"y  c #E2524A",
"u  c #E2544B",
"i  c #E2524E",
"p  c #E3534F",
"a  c #E2574D",
"s  c #E2564E",
"d  c #E2574E",
"f  c #E2564F",
"g  c #E2584E",
"h  c #E2584F",
"j  c #E2594F",
"k  c #E25451",
"l  c #E25754",
"z  c #E25950",
"x  c #E25B50",
"c  c #E25A53",
"v  c #E25955",
"b  c #E35B55",
"n  c #E35E5D",
"m  c #E45F5D",
"M  c #E25E68",
"N  c #E46565",
"B  c #E56863",
"V  c #E2606D",
"C  c #E46A6D",
"Z  c #E56E6F",
"A  c #E36371",
"S  c #E46472",
"D  c #E36D77",
"F  c #E57270",
"G  c #E57673",
"H  c #E67974",
"J  c #E67876",
"K  c #E4707B",
"L  c #E67E79",
"P  c #E57883",
"I  c #E78481",
"U  c #E78584",
"Y  c #E68585",
"T  c #E78985",
"R  c #E58088",
"E  c #E7878B",
"W  c #E6818D",
"Q  c #E6828E",
"!  c #E7858D",
"~  c #E6868E",
"^  c #E8918E",
"/  c #E78690",
"(  c #E68691",
")  c #E68B90",
"_  c #E68992",
"`  c #E78C91",
"'  c #E88E99",
"]  c #E89599",
"[  c #EAA4A1",
"{  c #E9A4AC",
"}  c #EAA4AC",
"|  c #EAA6AE",
" . c #EBADAF",
".. c #EBB1AD",
"X. c #EBB1AF",
"o. c #EAABB0",
"O. c #EAA9B2",
"+. c #EBABB3",
"@. c #EAAEB4",
"#. c #EBAFB6",
"$. c #EBB3B1",
"%. c #ECB7B7",
"&. c #EBB9B7",
"*. c #EBB1B8",
"=. c #ECBDC4",
"-. c #EDC7C5",
";. c #EDC5CA",
":. c #EEC9C9",
">. c #EECBCB",
",. c #EDC8CE",
"<. c #EDCACF",
"1. c #EECCD0",
"2. c #EED1D5",
"3. c #EED6D9",
"4. c #EFDADB",
"5. c #EFDBDF",
"6. c #EFDCDF",
"7. c #EFE0E0",
"8. c #F0E4E6",
"9. c #F0E8EA",
"0. c #F0EAEE",
"q. c #F0ECED",
"w. c #F0EEEE",
"e. c #F1EEF0",
"r. c #F1EFF1",
"t. c #F1F0F0",
"y. c #F1F1F2",
"u. c #F1F2F3",
"i. c #F1F3F3",
"p. c #F1F3F4",
"a. c #F1F4F5",
"s. c #F1F5F6",
"d. c #F1F7F8",
"f. c #F2F9F9",
"g. c #F2FBFB",
"h. c #F3FFFF",
"j. c #F4FFFF",
/* pixels */
"            V     w             ",
"        S 2.0.`   . 2           ",
"      ,.*.w.h.E k I k k -       ",
"    W h.;.O.[ n %.f.^ p #       ",
"  ~ 9.a.w. .3 N k ..w.T u 5 a   ",
"  #.h.p.4.v G | % 5 F v 5 5 g   ",
"  / 6.u./ - C O.  5 & - z 5 a   ",
"_ 3.,.1.  -   W   , # 3 t # # a ",
"R 5.j.@.  -   M   a F H w 8 u   ",
"  K '     - - E # v 7.%.- # g   ",
"        D - O m Y ,.u.H - # 8   ",
"    S 8.t.] e u :.a.-.B # >     ",
"    P g.,.a...D U $.L z .       ",
"      +.} e.f.` , 6 r g w       ",
"          | =.    , t           ",
"                                "
};
