<?xml version="1.0" standalone="no"?>
<!DOCTYPE svg PUBLIC "-//W3C//DTD SVG 20010904//EN"
 "http://www.w3.org/TR/2001/REC-SVG-20010904/DTD/svg10.dtd">
<svg version="1.0" xmlns="http://www.w3.org/2000/svg"
 width="580.000000pt" height="580.000000pt" viewBox="0 0 580.000000 580.000000"
 preserveAspectRatio="xMidYMid meet">
<metadata>
Created by potrace 1.16, written by Peter Selinger 2001-2019
</metadata>
<g transform="translate(0.000000,580.000000) scale(0.056530,-0.056530)"
fill="#000000" stroke="none">
<path d="M3876 9330 c-156 -25 -336 -97 -462 -185 -36 -25 -69 -45 -74 -45 -5
0 -13 -6 -17 -14 -4 -8 -47 -55 -95 -105 -49 -50 -88 -93 -88 -95 0 -5 -99
-170 -110 -183 -14 -17 -105 -16 -205 2 -235 42 -499 -22 -728 -177 -67 -46
-229 -194 -239 -220 -4 -10 -11 -18 -15 -18 -4 0 -13 -10 -19 -23 -6 -12 -29
-52 -51 -88 -85 -136 -141 -307 -150 -456 -3 -46 -9 -83 -13 -83 -4 0 -10 -13
-13 -29 -5 -23 -13 -31 -39 -36 -59 -13 -201 -80 -278 -130 -41 -28 -79 -52
-83 -53 -19 -9 -217 -215 -217 -226 0 -2 -22 -40 -50 -85 -170 -284 -196 -599
-74 -893 15 -37 24 -77 24 -112 0 -48 -3 -57 -27 -75 -36 -26 -163 -156 -163
-167 0 -2 -17 -30 -39 -62 -227 -335 -239 -736 -31 -1083 28 -45 50 -86 50
-90 0 -4 4 -9 8 -11 5 -1 36 -34 69 -73 34 -38 81 -86 107 -105 43 -33 45 -37
46 -87 0 -37 -10 -74 -35 -133 -122 -285 -114 -553 25 -835 58 -118 81 -157
98 -168 6 -4 12 -13 12 -20 0 -7 9 -18 20 -25 11 -7 20 -16 20 -22 0 -15 79
-89 168 -157 94 -72 252 -152 363 -184 l76 -21 6 -102 c8 -136 46 -279 106
-401 62 -125 93 -178 109 -188 6 -4 12 -13 12 -18 0 -14 185 -199 199 -199 5
0 14 -6 18 -12 10 -16 63 -47 188 -109 183 -90 391 -126 555 -94 103 20 221
29 235 18 6 -4 32 -38 58 -75 147 -208 364 -362 612 -434 254 -74 574 -19 802
137 53 37 98 37 212 4 49 -14 87 -21 90 -16 3 5 24 103 45 218 25 135 50 235
70 285 30 74 32 78 64 78 l32 0 0 1199 c0 761 -4 1218 -10 1252 -24 129 -111
243 -229 302 -56 27 -76 32 -136 32 -131 -1 -255 -86 -322 -223 l-38 -76 -6
-340 c-5 -321 -7 -345 -28 -403 l-23 -63 -49 0 c-48 0 -49 1 -164 112 -189
182 -309 345 -425 578 -34 69 -65 134 -70 145 -4 11 -15 36 -23 55 -29 67 -77
235 -102 354 -48 237 -59 352 -59 656 -1 301 4 362 51 604 l28 139 140 -6
c147 -6 244 -25 355 -71 76 -30 164 -82 201 -118 15 -16 31 -28 36 -28 13 0
113 -104 113 -118 0 -7 5 -12 10 -12 14 0 95 -127 127 -198 46 -105 72 -230
79 -389 5 -129 10 -156 32 -207 15 -33 42 -75 62 -93 50 -47 126 -83 174 -83
76 1 172 62 222 142 56 89 54 13 54 1785 0 898 -4 1633 -8 1633 -4 0 -16 35
-26 78 -34 145 -112 308 -206 427 -41 53 -159 175 -168 175 -4 0 -21 12 -38
28 -70 63 -256 152 -388 186 -111 29 -259 40 -350 26z m389 -119 c90 -23 266
-107 308 -145 16 -14 32 -26 37 -26 5 0 21 -15 35 -34 22 -29 26 -43 23 -93
l-3 -58 -69 -12 c-38 -7 -71 -15 -74 -17 -2 -3 17 -93 42 -200 28 -118 46
-220 46 -256 0 -57 -1 -60 -27 -66 -16 -4 -39 -12 -53 -19 -263 -125 -420
-224 -663 -418 -95 -76 -100 -78 -146 -75 l-49 3 -164 208 -165 207 -92 -71
-91 -70 -57 3 -58 3 -7 50 c-18 142 -4 340 34 464 23 76 82 200 107 227 9 11
20 27 24 37 3 9 11 17 17 17 5 0 10 5 10 12 0 17 177 188 195 188 8 0 15 4 15
10 0 14 115 75 199 104 125 45 209 56 386 52 121 -3 179 -9 240 -25z m-1341
-611 l38 -12 -5 -76 c-3 -42 -11 -108 -17 -147 -28 -176 41 -444 164 -634 25
-39 46 -74 46 -76 0 -2 10 -15 23 -28 12 -13 47 -51 77 -85 30 -34 59 -61 64
-62 26 -1 46 -35 46 -81 0 -44 -6 -55 -82 -156 -86 -114 -259 -372 -279 -417
-11 -23 -18 -26 -63 -26 -49 0 -58 5 -201 106 -82 59 -171 122 -196 140 l-46
33 -87 -121 c-88 -121 -88 -121 -67 -137 12 -9 120 -81 241 -161 l218 -145 1
-62 c1 -34 -3 -65 -9 -68 -5 -3 -10 -13 -10 -22 0 -8 -6 -29 -14 -46 -50 -110
-182 -581 -202 -717 -3 -25 -15 -76 -26 -115 -30 -104 -48 -228 -48 -332 0
-51 -3 -93 -7 -93 -19 0 -628 -82 -631 -85 -4 -4 64 -265 72 -272 2 -3 77 7
166 21 89 14 179 26 201 26 l39 0 0 -55 c0 -42 -5 -60 -20 -75 -11 -11 -20
-23 -20 -27 0 -14 -153 -158 -203 -192 -75 -51 -206 -109 -298 -131 -190 -46
-445 -34 -619 29 -88 33 -220 105 -220 121 0 6 -5 10 -12 10 -6 0 -18 6 -27
14 -9 8 -40 36 -68 62 -29 26 -53 51 -53 56 0 5 -13 23 -30 39 -56 57 -127
197 -167 334 -15 49 -18 98 -18 270 0 191 2 217 23 285 27 87 91 230 104 230
4 0 8 7 8 15 0 8 8 23 19 34 10 10 20 23 22 29 2 6 30 40 62 76 l58 66 64 0
c55 0 66 -3 80 -22 25 -37 162 -175 179 -181 9 -4 16 -11 16 -17 0 -5 5 -10
11 -10 6 0 29 -13 52 -29 120 -82 295 -148 456 -171 97 -15 141 -3 141 36 0
32 -45 54 -112 54 -130 1 -314 56 -441 131 -129 77 -276 236 -345 374 -102
205 -128 518 -62 749 22 78 89 226 102 226 4 0 8 7 8 15 0 8 9 24 20 35 11 11
20 23 20 27 0 4 9 16 20 28 10 11 36 39 56 63 20 23 40 42 45 42 6 0 25 16 45
35 19 19 41 35 49 35 8 0 15 4 15 10 0 18 186 100 275 122 156 37 152 31 158
238 4 107 10 164 26 220 27 93 103 249 142 291 16 17 29 33 29 35 0 7 141 144
149 144 5 0 11 7 15 15 3 8 12 15 21 15 8 0 15 5 15 10 0 6 7 10 15 10 8 0 15
4 15 10 0 11 122 70 195 95 110 37 175 44 360 41 99 -2 197 -9 219 -16z m286
-620 c0 -6 56 -86 125 -178 122 -164 125 -168 125 -219 l0 -53 -52 0 c-50 0
-55 3 -105 52 -29 29 -53 58 -53 65 0 7 -9 17 -20 23 -11 6 -20 17 -20 25 0 8
-4 15 -10 15 -5 0 -10 7 -10 15 0 8 -4 15 -9 15 -5 0 -25 31 -45 69 -29 55
-36 80 -36 125 l0 56 55 0 c31 0 55 -4 55 -10z m1750 -1598 c0 -749 -4 -1321
-9 -1339 -5 -17 -23 -46 -41 -65 -32 -33 -32 -33 -125 -33 l-94 0 -36 39 c-33
37 -35 42 -35 111 0 118 -19 269 -46 363 -32 112 -139 334 -171 355 -7 4 -13
13 -13 20 0 7 -9 18 -20 25 -11 7 -20 17 -20 23 0 14 -106 119 -120 119 -5 0
-15 9 -22 20 -7 11 -16 20 -20 20 -5 0 -30 16 -57 35 -131 95 -323 165 -506
186 l-105 13 0 48 c0 27 4 56 9 66 5 9 14 31 21 47 7 17 23 51 36 76 13 26 24
51 24 57 0 14 136 247 188 322 139 200 311 385 462 498 103 78 257 170 360
214 19 8 46 20 60 27 61 29 179 60 228 61 l52 0 0 -1308z m-2466 -1859 c11
-147 45 -360 81 -518 20 -84 35 -177 35 -211 l0 -61 -51 -7 c-133 -18 -319
-98 -454 -196 -78 -57 -195 -163 -195 -178 0 -4 -16 -24 -35 -45 -19 -21 -35
-40 -35 -43 0 -3 -17 -34 -39 -70 -42 -69 -90 -185 -116 -276 l-16 -58 -49 0
c-66 0 -222 57 -314 114 -82 51 -216 170 -216 192 0 8 -5 14 -10 14 -16 0
-100 135 -132 211 -54 128 -71 227 -71 404 1 178 13 254 64 385 l30 80 54 0
c34 0 71 -8 106 -24 148 -68 345 -102 486 -85 181 23 408 113 527 209 61 50
196 184 218 216 21 31 27 34 74 34 l51 0 7 -87z m2323 2 c45 -19 99 -73 121
-123 15 -33 17 -97 20 -614 l3 -578 -47 0 c-46 0 -225 47 -294 77 -45 19 -72
31 -85 35 -5 2 -52 25 -102 52 l-93 48 0 53 c0 35 8 71 26 109 44 96 53 184
54 490 0 301 4 332 51 389 48 59 99 77 212 77 65 0 110 -5 134 -15z m-2122
-917 c4 -18 11 -39 15 -48 4 -8 12 -26 17 -40 5 -14 19 -45 30 -70 11 -25 27
-62 36 -83 10 -21 17 -59 17 -85 l0 -47 -233 -135 -233 -135 61 -101 61 -102
214 114 c198 104 219 113 270 114 l56 0 61 -82 c34 -46 73 -95 87 -110 18 -19
26 -38 26 -63 0 -32 3 -35 28 -35 21 0 55 -27 158 -128 71 -70 167 -154 212
-187 l81 -60 1 -54 c0 -52 -6 -65 -105 -233 -58 -99 -105 -183 -105 -188 0 -4
49 -46 108 -93 l109 -84 133 220 133 219 66 -4 c37 -3 75 -10 86 -15 18 -10
49 -23 100 -44 45 -18 305 -99 385 -119 128 -33 130 -35 130 -93 0 -55 -93
-406 -118 -445 -19 -29 -115 -85 -208 -122 -116 -46 -205 -60 -387 -60 -141 0
-178 3 -258 24 -52 13 -120 35 -151 49 -71 32 -198 113 -198 127 0 5 -6 10
-14 10 -17 0 -156 148 -156 167 0 7 -4 13 -10 13 -5 0 -10 7 -10 15 0 8 -4 15
-9 15 -14 0 -77 130 -104 216 -37 117 -51 238 -44 384 6 137 28 237 77 352 16
40 30 76 30 80 0 13 -45 9 -63 -4 -23 -18 -82 -149 -106 -236 -48 -176 -49
-320 0 -500 23 -86 25 -167 5 -175 -47 -18 -193 -29 -320 -24 -143 6 -220 21
-334 65 -66 25 -192 99 -192 112 0 6 -5 10 -11 10 -13 0 -28 13 -97 82 -62 62
-82 84 -82 91 0 3 -11 18 -24 32 -36 39 -102 179 -133 280 -25 85 -27 102 -27
285 0 169 3 206 22 275 26 96 110 270 152 315 16 18 30 35 30 38 0 12 163 162
176 162 8 0 14 5 14 10 0 6 7 10 15 10 8 0 15 4 15 9 0 11 102 64 175 90 88
32 181 49 262 50 l71 1 7 -32z"/>
<path d="M6188 9325 c-123 -23 -264 -82 -361 -151 -26 -19 -48 -34 -50 -34 -4
0 -157 -151 -157 -156 0 -2 -15 -25 -34 -51 -62 -87 -146 -282 -146 -338 0 -9
43 -14 178 -18 107 -3 213 -12 267 -22 153 -30 131 -53 191 197 28 120 54 224
58 233 9 26 89 17 271 -28 l170 -43 3 -51 c2 -40 -12 -102 -68 -288 -39 -131
-70 -238 -68 -239 2 -1 46 -34 98 -73 117 -88 264 -237 360 -363 40 -52 77
-94 82 -92 5 1 33 19 63 39 l55 36 0 69 c0 58 6 83 36 151 80 183 97 352 51
528 -25 95 -88 236 -133 296 -13 17 -24 34 -24 37 0 3 -8 14 -17 24 -10 10
-42 44 -71 75 -29 31 -57 57 -62 57 -6 0 -15 9 -22 20 -7 11 -16 20 -20 20 -4
0 -34 17 -65 37 -175 112 -405 162 -585 128z"/>
<path d="M7547 8791 c-20 -4 -39 -10 -41 -12 -2 -2 3 -33 11 -69 8 -36 16
-135 19 -220 7 -185 -9 -307 -58 -456 -18 -54 -32 -104 -31 -111 0 -7 35 -65
77 -130 73 -114 76 -121 76 -179 l0 -59 -190 -110 c-142 -82 -189 -114 -185
-125 86 -228 88 -232 135 -252 79 -34 210 -61 300 -61 148 0 344 63 474 152
24 17 46 31 48 31 4 0 114 97 130 115 82 91 187 286 219 410 54 208 7 455
-124 652 -29 43 -54 83 -57 88 -3 6 -39 41 -80 79 -41 38 -80 74 -85 80 -33
35 -213 123 -312 152 -94 27 -257 40 -326 25z"/>
<path d="M5420 6937 l0 -703 26 -52 c28 -56 99 -112 141 -112 53 0 122 51 156
115 21 38 22 56 27 395 5 338 7 358 29 420 28 81 81 180 98 187 7 3 13 10 13
17 0 14 124 136 139 136 6 0 11 4 11 10 0 5 21 21 46 36 l46 27 -69 38 c-81
46 -240 110 -343 138 -73 20 -252 51 -297 51 l-23 0 0 -703z"/>
<path d="M8846 7572 c-2 -4 -9 -27 -16 -51 -32 -119 -166 -370 -206 -385 -8
-3 -14 -10 -14 -17 0 -16 -152 -169 -167 -169 -7 0 -13 -5 -13 -10 0 -17 -177
-127 -255 -159 -271 -113 -581 -132 -878 -54 l-98 25 -112 -46 c-91 -38 -123
-46 -173 -46 l-61 0 -48 77 c-74 116 -185 262 -261 343 -66 70 -69 72 -107 66
-58 -10 -167 -69 -216 -117 -35 -36 -45 -52 -89 -139 l-37 -75 -6 -355 c-6
-370 -8 -390 -54 -480 -27 -53 -101 -140 -120 -140 -7 0 -15 -6 -18 -13 -11
-30 -165 -87 -236 -87 -33 0 -32 -1 27 -30 72 -36 125 -92 160 -168 23 -50 26
-74 33 -222 9 -226 49 -367 142 -513 20 -31 37 -61 37 -65 0 -4 9 -13 20 -20
11 -7 20 -16 20 -21 0 -8 109 -121 117 -121 2 0 27 -18 56 -39 100 -75 292
-156 387 -163 l35 -3 7 55 c3 30 6 83 7 116 l1 62 190 76 c161 64 199 76 249
76 l58 0 49 -104 48 -104 28 21 c94 73 180 185 248 322 67 134 89 225 100 420
11 205 36 319 105 480 25 58 96 175 106 175 5 0 9 7 9 15 0 9 7 18 15 21 8 4
15 11 15 17 0 11 14 28 97 110 82 83 99 97 110 97 6 0 13 7 17 15 3 8 12 15
21 15 8 0 15 4 15 9 0 12 122 84 195 114 174 72 308 97 515 97 166 0 282 -17
408 -59 l84 -28 19 44 c55 128 73 304 45 443 -56 277 -244 524 -494 649 -82
42 -110 52 -116 43z"/>
<path d="M8775 6146 c-137 -27 -251 -74 -363 -152 -35 -24 -64 -44 -66 -44 -1
0 -33 -30 -69 -67 -37 -36 -67 -68 -67 -69 0 -2 -20 -32 -45 -68 -106 -152
-152 -301 -165 -536 -20 -356 -115 -583 -339 -810 -102 -103 -152 -145 -222
-185 l-44 -25 213 0 212 0 0 -210 0 -210 -195 0 -195 0 0 -62 c-1 -131 -35
-331 -87 -502 -15 -50 -23 -91 -18 -93 6 -2 98 -43 205 -91 l195 -88 3 -57 c3
-53 -2 -68 -64 -197 l-67 -140 -59 0 c-33 0 -67 4 -77 10 -16 8 -16 2 6 -58
44 -121 63 -228 69 -392 3 -85 1 -183 -4 -218 -5 -34 -6 -65 -3 -67 4 -2 43
-8 87 -14 145 -20 343 25 498 114 44 25 83 45 87 45 4 0 9 7 13 15 3 8 10 15
15 15 19 0 158 154 212 234 105 158 149 312 149 521 0 141 10 174 60 200 16 8
42 15 57 15 42 0 210 61 287 104 37 21 93 58 124 83 61 48 162 151 162 164 0
4 6 12 13 16 35 22 123 212 154 332 56 219 5 466 -141 675 -22 32 -45 65 -51
73 -18 26 -108 113 -116 113 -5 0 -14 9 -21 20 -7 11 -16 20 -20 20 -4 0 -34
17 -65 37 -125 80 -283 131 -436 140 -153 9 -177 32 -177 165 0 86 1 88 34
123 l34 35 120 0 c195 0 375 -41 537 -123 92 -46 195 -113 195 -127 0 -6 6
-10 13 -10 7 0 48 -36 92 -80 l79 -81 43 47 c24 26 43 49 43 51 0 3 13 23 29
46 74 109 133 262 151 395 21 153 -28 358 -122 515 -26 44 -48 83 -48 86 0 3
-9 12 -20 19 -11 7 -20 18 -21 25 -1 16 -139 138 -214 187 -171 114 -415 170
-590 136z"/>
<path d="M5467 5409 c-48 -28 -47 5 -47 -1104 l0 -1035 23 4 c12 3 54 8 92 11
97 10 273 55 380 100 272 113 497 309 640 560 25 44 45 85 45 91 0 6 -33 17
-72 24 -94 16 -230 60 -310 101 -85 43 -198 116 -198 129 0 5 -5 10 -12 10
-15 0 -79 60 -169 157 -91 99 -190 283 -233 434 -32 113 -46 217 -46 345 0
111 -12 154 -49 174 -23 12 -22 12 -44 -1z"/>
<path d="M6967 2503 c-80 -98 -248 -259 -347 -332 -47 -35 -86 -64 -88 -66 -1
-1 38 -100 88 -219 83 -199 91 -222 88 -273 l-3 -57 -165 -97 c-155 -92 -168
-98 -221 -99 l-56 0 -93 208 c-51 114 -101 225 -111 248 l-19 41 -110 -33
c-125 -38 -274 -70 -372 -80 -38 -4 -68 -10 -68 -13 0 -17 89 -178 110 -201 9
-9 29 -33 45 -55 90 -119 291 -246 470 -297 104 -30 296 -32 395 -4 79 21 232
92 297 138 26 18 52 35 58 38 29 13 176 187 219 259 59 98 112 248 125 356 19
156 -28 353 -121 509 -27 44 -53 85 -57 89 -4 4 -33 -23 -64 -60z"/>
</g>
</svg>
